<svg width="1200" height="900" viewBox="0 0 1200 900" fill="none" xmlns="http://www.w3.org/2000/svg">
  <g id="Cloud_Curious">
  <path id="Cloud_Silhouette" data-part="cloud-silhouette" d="M507 212C481 212 460 193 460 168C460 143 479 123 504 121C511 94 535 76 564 78C579 57 608 50 632 62C650 71 661 86 665 103C694 99 721 119 728 147C749 154 761 174 756 195C751 215 732 228 711 226C662 231 555 230 507 212Z" fill="#EAF4FF" stroke="#8CB7F0" stroke-width="5" stroke-linejoin="round"/>
  <circle cx="601" cy="246" r="7" fill="#EAF4FF" stroke="#8CB7F0" stroke-width="4"/>
  <path d="M726 116C726 96 744 84 766 88C785 91 797 104 795 120C793 137 775 142 763 152C757 157 754 164 754 173" stroke="#7599CF" stroke-width="9" stroke-linecap="round"/>
  <circle cx="754" cy="193" r="6" fill="#7599CF"/>
  </g>
</svg>
