<svg width="1200" height="900" viewBox="0 0 1200 900" fill="none" xmlns="http://www.w3.org/2000/svg">
  <g id="Cloud_Strawberry">
    <path id="Cloud_Strawberry_Silhouette" data-part="cloud-silhouette" d="M507 212C481 212 460 193 460 168C460 143 479 123 504 121C511 94 535 76 564 78C579 57 608 50 632 62C650 71 661 86 665 103C694 99 721 119 728 147C749 154 761 174 756 195C751 215 732 228 711 226C662 231 555 230 507 212Z" fill="#FFF1F1" stroke="#EBA8B7" stroke-width="5" stroke-linejoin="round"/>
    <circle cx="601" cy="246" r="7" fill="#FFF1F1" stroke="#EBA8B7" stroke-width="4"/>
  </g>
</svg>
